<?xml version="1.0" encoding="UTF-8" standalone="no"?>
<svg xmlns:dc="http://purl.org/dc/elements/1.1/" xmlns:cc="http://creativecommons.org/ns#" xmlns:rdf="http://www.w3.org/1999/02/22-rdf-syntax-ns#" xmlns:svg="http://www.w3.org/2000/svg" xmlns="http://www.w3.org/2000/svg" viewBox="0 0 1935.12 1935.12" height="1935.12" width="1935.12" xml:space="preserve" id="svg2" version="1.1"><metadata id="metadata8"><rdf:RDF><cc:Work rdf:about=""><dc:format>image/svg+xml</dc:format><dc:type rdf:resource="http://purl.org/dc/dcmitype/StillImage"/></cc:Work></rdf:RDF></metadata><defs id="defs6"><clipPath id="clipPath18" clipPathUnits="userSpaceOnUse"><path id="path16" d="M 0,1451.34 H 1451.34 V 0 H 0 Z"/></clipPath><clipPath id="clipPath30" clipPathUnits="userSpaceOnUse"><path id="path28" d="M 725.67,1451.34 C 324.894,1451.34 0,1126.446 0,725.67 v 0 C 0,324.894 324.894,0 725.67,0 v 0 c 400.776,0 725.67,324.894 725.67,725.67 v 0 c 0,400.776 -324.894,725.67 -725.67,725.67 z"/></clipPath><clipPath id="clipPath42" clipPathUnits="userSpaceOnUse"><path id="path40" d="M 0,1451.34 H 1451.34 V 0 H 0 Z"/></clipPath><clipPath id="clipPath80" clipPathUnits="userSpaceOnUse"><path id="path78" d="m 601.366,1056.81 h 86.64 V 552.228 h -86.64 z"/></clipPath><clipPath id="clipPath110" clipPathUnits="userSpaceOnUse"><path id="path108" d="m 421.878,1057.07 h 86.64 V 552.488 h -86.64 z"/></clipPath><clipPath id="clipPath140" clipPathUnits="userSpaceOnUse"><path id="path138" d="m 779.506,1055.98 h 86.641 V 551.402 h -86.641 z"/></clipPath><clipPath id="clipPath184" clipPathUnits="userSpaceOnUse"><path id="path182" d="m 952.61,1075.61 h 169.9 V 565.483 h -169.9 z"/></clipPath></defs><g transform="matrix(1.3333333,0,0,-1.3333333,0,1935.12)" id="g10"><g id="g12"><g clip-path="url(#clipPath18)" id="g14"><g transform="translate(1451.34,725.67)" id="g20"><path id="path22" style="fill:#266f88;fill-opacity:1;fill-rule:nonzero;stroke:none" d="m 0,0 c 0,-400.776 -324.894,-725.67 -725.67,-725.67 -400.777,0 -725.67,324.894 -725.67,725.67 0,400.777 324.893,725.67 725.67,725.67 C -324.894,725.67 0,400.777 0,0"/></g></g></g><g id="g24"><g clip-path="url(#clipPath30)" id="g26"><g transform="translate(242.7947,446.431)" id="g32"><path id="path34" style="fill:#27667e;fill-opacity:1;fill-rule:nonzero;stroke:none" d="M 0,0 515.932,572.652 793.099,626.473 1415.908,5.328 769.354,-769.316 Z"/></g></g></g><g id="g36"><g clip-path="url(#clipPath42)" id="g38"><g transform="translate(327.9779,466.7752)" id="g44"><path id="path46" style="fill:#d55f68;fill-opacity:1;fill-rule:nonzero;stroke:none" d="M 0,0 C 0,6.488 5.259,11.747 11.747,11.747 H 43.918 C 50.406,11.747 55.665,6.488 55.665,0 v -82.449 c 0,-6.488 -5.259,-11.747 -11.747,-11.747 H 11.747 C 5.259,-94.196 0,-88.937 0,-82.449 Z"/></g><g transform="translate(1069.5826,466.7752)" id="g48"><path id="path50" style="fill:#d55f68;fill-opacity:1;fill-rule:nonzero;stroke:none" d="M 0,0 C 0,6.488 5.259,11.747 11.747,11.747 H 43.918 C 50.406,11.747 55.665,6.488 55.665,0 v -82.449 c 0,-6.488 -5.259,-11.747 -11.747,-11.747 H 11.747 C 5.259,-94.196 0,-88.937 0,-82.449 Z"/></g><g transform="translate(239.0931,452.011)" id="g52"><path id="path54" style="fill:#ffffff;fill-opacity:1;fill-rule:nonzero;stroke:none" d="m 0,0 c 0,-4.697 3.807,-8.504 8.504,-8.504 h 958.032 c 4.696,0 8.504,3.807 8.504,8.504 v 85.344 c 0,4.697 -3.808,8.504 -8.504,8.504 H 8.504 C 3.807,93.848 0,90.041 0,85.344 Z"/></g><path id="path56" style="fill:#ffffff;fill-opacity:1;fill-rule:nonzero;stroke:none" d="m 327.978,494.683 h -88.885 v 255.881 h 88.885 z"/><path id="path58" style="fill:#ffffff;fill-opacity:1;fill-rule:nonzero;stroke:none" d="m 1214.133,494.683 h -88.885 v 255.881 h 88.885 z"/><g transform="translate(688.0064,563.9748)" id="g60"><path id="path62" style="fill:#f3cb61;fill-opacity:1;fill-rule:nonzero;stroke:none" d="m 0,0 c 0,-6.488 -5.259,-11.747 -11.747,-11.747 h -149.786 c -6.488,0 -11.748,5.259 -11.748,11.747 v 481.084 c 0,6.488 5.26,11.747 11.748,11.747 H -11.747 C -5.259,492.831 0,487.572 0,481.084 Z"/></g><path id="path64" style="fill:#cbdbd3;fill-opacity:1;fill-rule:nonzero;stroke:none" d="M 688.006,623.299 H 514.725 v 360.783 h 173.281 z"/><path id="path66" style="fill:#f3eddc;fill-opacity:1;fill-rule:nonzero;stroke:none" d="M 688.006,637.593 H 514.725 v 332.196 h 173.281 z"/><path id="path68" style="fill:#f3cb61;fill-opacity:1;fill-rule:nonzero;stroke:none" d="M 660.398,933.305 H 542.334 v 12.57 h 118.064 z"/><path id="path70" style="fill:#f3cb61;fill-opacity:1;fill-rule:nonzero;stroke:none" d="M 660.398,910.038 H 542.334 v 12.57 h 118.064 z"/><path id="path72" style="fill:#f3cb61;fill-opacity:1;fill-rule:nonzero;stroke:#c66579;stroke-width:7;stroke-linecap:butt;stroke-linejoin:miter;stroke-miterlimit:10;stroke-dasharray:none;stroke-opacity:1" d="M 660.398,661.507 H 542.334 v 230.741 h 118.064 z"/><g id="g74"><g id="g76"/><g id="g88"><g style="opacity:0.10000598" id="g86" clip-path="url(#clipPath80)"><g id="g84" transform="translate(688.0064,563.9748)"><path id="path82" style="fill:#231f20;fill-opacity:1;fill-rule:nonzero;stroke:none" d="M 0,0 C 0,-6.488 -5.259,-11.747 -11.747,-11.747 H -86.64 v 504.578 h 74.893 C -5.259,492.831 0,487.572 0,481.084 Z"/></g></g></g></g><g transform="translate(508.5181,564.2352)" id="g90"><path id="path92" style="fill:#f3cb61;fill-opacity:1;fill-rule:nonzero;stroke:none" d="m 0,0 c 0,-6.488 -5.259,-11.747 -11.747,-11.747 h -149.786 c -6.488,0 -11.748,5.259 -11.748,11.747 v 481.084 c 0,6.488 5.26,11.747 11.748,11.747 H -11.747 C -5.259,492.831 0,487.572 0,481.084 Z"/></g><path id="path94" style="fill:#cbdbd3;fill-opacity:1;fill-rule:nonzero;stroke:none" d="M 508.518,623.56 H 335.237 v 360.783 h 173.281 z"/><path id="path96" style="fill:#f3eddc;fill-opacity:1;fill-rule:nonzero;stroke:none" d="M 508.518,637.853 H 335.237 v 332.196 h 173.281 z"/><path id="path98" style="fill:#f3cb61;fill-opacity:1;fill-rule:nonzero;stroke:none" d="M 480.91,933.565 H 362.846 v 12.57 H 480.91 Z"/><path id="path100" style="fill:#f3cb61;fill-opacity:1;fill-rule:nonzero;stroke:none" d="M 480.91,910.299 H 362.846 v 12.57 H 480.91 Z"/><path id="path102" style="fill:#f3cb61;fill-opacity:1;fill-rule:nonzero;stroke:#c66579;stroke-width:7;stroke-linecap:butt;stroke-linejoin:miter;stroke-miterlimit:10;stroke-dasharray:none;stroke-opacity:1" d="M 480.91,661.768 H 362.846 V 892.509 H 480.91 Z"/><g id="g104"><g id="g106"/><g id="g118"><g style="opacity:0.10000598" id="g116" clip-path="url(#clipPath110)"><g id="g114" transform="translate(508.5181,564.2352)"><path id="path112" style="fill:#231f20;fill-opacity:1;fill-rule:nonzero;stroke:none" d="M 0,0 C 0,-6.488 -5.259,-11.747 -11.747,-11.747 H -86.64 v 504.578 h 74.893 C -5.259,492.831 0,487.572 0,481.084 Z"/></g></g></g></g><g transform="translate(866.1467,563.1487)" id="g120"><path id="path122" style="fill:#f3eddc;fill-opacity:1;fill-rule:nonzero;stroke:none" d="m 0,0 c 0,-6.488 -5.259,-11.747 -11.747,-11.747 h -149.786 c -6.488,0 -11.748,5.259 -11.748,11.747 v 481.084 c 0,6.488 5.26,11.747 11.748,11.747 H -11.747 C -5.259,492.831 0,487.572 0,481.084 Z"/></g><path id="path124" style="fill:#266f88;fill-opacity:1;fill-rule:nonzero;stroke:none" d="M 866.147,622.473 H 692.866 v 360.783 h 173.281 z"/><path id="path126" style="fill:#c5dbcf;fill-opacity:1;fill-rule:nonzero;stroke:none" d="M 866.147,636.767 H 692.866 v 332.196 h 173.281 z"/><path id="path128" style="fill:#f3eddc;fill-opacity:1;fill-rule:nonzero;stroke:none" d="M 838.538,932.479 H 720.474 v 12.57 h 118.064 z"/><path id="path130" style="fill:#f3eddc;fill-opacity:1;fill-rule:nonzero;stroke:none" d="M 838.538,909.212 H 720.474 v 12.57 h 118.064 z"/><path id="path132" style="fill:#266f88;fill-opacity:1;fill-rule:nonzero;stroke:#ffffff;stroke-width:7;stroke-linecap:butt;stroke-linejoin:miter;stroke-miterlimit:10;stroke-dasharray:none;stroke-opacity:1" d="M 838.538,660.681 H 720.474 v 230.741 h 118.064 z"/><g id="g134"><g id="g136"/><g id="g148"><g style="opacity:0.10000598" id="g146" clip-path="url(#clipPath140)"><g id="g144" transform="translate(866.1466,563.1487)"><path id="path142" style="fill:#231f20;fill-opacity:1;fill-rule:nonzero;stroke:none" d="M 0,0 C 0,-6.488 -5.259,-11.747 -11.747,-11.747 H -86.64 v 504.578 h 74.893 C -5.259,492.831 0,487.572 0,481.084 Z"/></g></g></g></g><g transform="translate(1122.3311,591.8874)" id="g150"><path id="path152" style="fill:#c5dbcf;fill-opacity:1;fill-rule:nonzero;stroke:none" d="m 0,0 c 1.11,-6.392 -3.171,-12.474 -9.563,-13.585 l -147.575,-25.639 c -6.393,-1.111 -12.475,3.171 -13.585,9.563 l -82.349,473.984 c -1.111,6.392 3.171,12.474 9.563,13.584 l 147.575,25.64 c 6.392,1.11 12.475,-3.171 13.585,-9.563 z"/></g><g transform="translate(1112.1763,650.3364)" id="g154"><path id="path156" style="fill:#f3eddc;fill-opacity:1;fill-rule:nonzero;stroke:none" d="m 0,0 -170.723,-29.661 -61.757,355.458 170.723,29.661 z"/></g><g transform="translate(1109.7295,664.4189)" id="g158"><path id="path160" style="fill:#c66579;fill-opacity:1;fill-rule:nonzero;stroke:none" d="m 0,0 -170.723,-29.661 -56.863,327.293 170.723,29.661 z"/></g><g transform="translate(1031.9108,951.0408)" id="g162"><path id="path164" style="fill:#f3eddc;fill-opacity:1;fill-rule:nonzero;stroke:none" d="m 0,0 -116.322,-20.209 -2.151,12.384 116.321,20.209 z"/></g><g transform="translate(1035.8934,928.1174)" id="g166"><path id="path168" style="fill:#f3eddc;fill-opacity:1;fill-rule:nonzero;stroke:none" d="m 0,0 -116.322,-20.209 -2.151,12.384 116.321,20.209 z"/></g><g transform="translate(1078.4353,683.2545)" id="g170"><path id="path172" style="fill:#f3cb61;fill-opacity:1;fill-rule:nonzero;stroke:none" d="m 0,0 -116.322,-20.209 -39.496,227.335 116.321,20.21 z"/></g><g transform="translate(1078.4353,683.2545)" id="g174"><path id="path176" style="fill:none;stroke:#ffffff;stroke-width:7;stroke-linecap:butt;stroke-linejoin:miter;stroke-miterlimit:10;stroke-dasharray:none;stroke-opacity:1" d="m 0,0 -116.322,-20.209 -39.496,227.335 116.321,20.21 z"/></g><g id="g178"><g id="g180"/><g id="g192"><g style="opacity:0.10000598" id="g190" clip-path="url(#clipPath184)"><g id="g188" transform="translate(1122.3311,591.8874)"><path id="path186" style="fill:#231f20;fill-opacity:1;fill-rule:nonzero;stroke:none" d="m 0,0 c 1.11,-6.392 -3.171,-12.474 -9.563,-13.585 l -73.788,-12.819 -86.37,497.131 73.787,12.82 c 6.392,1.11 12.475,-3.171 13.585,-9.563 z"/></g></g></g></g></g></g></g></svg>