<svg xmlns="http://www.w3.org/2000/svg" version="1.1" xmlns:xlink="http://www.w3.org/1999/xlink" xmlns:svgjs="http://svgjs.dev/svgjs" width="100%" height="100%" viewBox="0 0 1000 600"><rect width="1000" height="600" x="0" y="0" fill="#e2d3f4"/><g><rect width="333.3333333333333" height="333.3333333333333" rx="13.333333333333334" ry="13.333333333333334" y="159.95420377093305" fill="#013dc4" transform="matrix(0.9075597779669184,0,0,0.9075597779669184,0,3.57203795890193)" x="137.7319793701172"/><path d="M194.78326928717456 400.6807004542029L194.78326928717456 400.6807004542029Q197.09096144438573 391.7704446249709 204.16361055583846 387.1550603105486L204.16361055583846 387.1550603105486Q203.39437983676805 384.0781374342671 203.39437983676805 378.6080523208776Q203.39437983676805 373.15933472746235 206.62087535286886 349.3131824362804L206.62087535286886 349.3131824362804Q212.30463566600005 309.7619029640779 212.30463566600005 288.07387019028783L212.30463566600005 288.07387019028783Q212.30463566600005 283.45848587586545 211.7063451067231 275.4670334055231L211.7063451067231 275.4670334055231Q223.39437853259815 276.0653239648001 228.77899356609086 279.1422468410816L228.77899356609086 279.1422468410816Q231.08668572330203 280.38156299958393 232.30463436183013 282.9242978765111Q233.54395052033243 285.46703275343816 233.77899324004838 287.6037847508559Q234.01403595976433 289.7619042682478 234.01403595976433 295.4670321013532Q234.01403595976433 301.1507924144844 229.3131815654453 332.7747219762671Q224.61232717112625 364.37728401807544 223.84309645205587 382.5396759961262L223.84309645205587 382.5396759961262Q260.31745304797676 382.5396759961262 277.8601869467764 376.6849755232016L277.8601869467764 376.6849755232016Q276.47129814845493 388.0738636694382 270.93711047514296 394.37728206182055Q265.3815552818568 400.6807004542029 257.090957531876 400.6807004542029L257.090957531876 400.6807004542029Q254.6123252148714 400.6807004542029 243.30890714853152 399.37728173577807Q232.00548908219164 398.07386301735323 219.39865229742696 398.07386301735323Q206.7704479926881 398.07386301735323 194.78326928717456 400.6807004542029ZM314.16360338290394 322.3901072688168Q314.16360338290394 324.6977994260279 310.38155234747444 346.620874919534Q306.62086883201926 368.5439504130401 306.53539875212255 382.77471871584225Q306.47129619220004 397.00548701864443 308.3089029099792 401.15078589363486L308.3089029099792 401.15078589363486Q296.32172420446574 398.07386301735323 292.15505780950116 391.8345471848935Q288.0097589345107 385.61659887240785 288.0097589345107 373.6080526469201L288.0097589345107 373.6080526469201Q288.0097589345107 367.15506161471853 290.4670237315411 350.23198579517Q292.92428852857154 333.3089099756214 292.92428852857154 323.92856870695755Q292.92428852857154 314.5268599183195 292.00548516968195 309.46275768443945L292.00548516968195 309.46275768443945Q295.3815533256019 309.1422448848268 298.30890356206424 309.1422448848268L298.30890356206424 309.1422448848268Q307.2405269112704 309.1422448848268 310.7020651470872 312.15506520118583Q314.16360338290394 315.14651799757064 314.16360338290394 322.3901072688168L314.16360338290394 322.3901072688168ZM316.4712955401151 295.6166047411724L316.4712955401151 295.6166047411724Q312.15505650533123 296.2362628204236 308.9285609892304 296.2362628204236L308.9285609892304 296.2362628204236Q293.07386116839075 296.2362628204236 293.07386116839075 285.14651995382553L293.07386116839075 285.14651995382553Q293.07386116839075 281.1507937186543 295.3815533256019 274.22771724702085L295.3815533256019 274.22771724702085Q299.69779236038573 273.60805916776974 302.9242878764866 273.60805916776974L302.9242878764866 273.60805916776974Q318.7789876973262 273.60805916776974 318.7789876973262 284.6978020343678L318.7789876973262 284.6978020343678Q318.7789876973262 288.693528269539 316.4712955401151 295.6166047411724ZM346.1507807842475 251.6208811143411Q357.0909510110264 254.52686383082923 361.15077980612006 262.1550684616106Q365.231976121188 269.76190557241773 365.231976121188 278.9926742012624Q365.231976121188 288.22344283010705 362.3046258847256 310.46703112322575Q359.3986431682375 332.68925189637037 358.30889964955446 345.9157467603861L358.30889964955446 345.9157467603861Q362.9242839639768 329.4627563802695 371.4712919536478 319.7619023119929Q379.99693242334456 310.0824157636906 389.8473591314404 310.0824157636906Q399.6977858395362 310.0824157636906 406.85590503088554 319.4627570323545Q414.0140242222351 328.84309830101836 414.0140242222351 343.4584819633558L414.0140242222351 343.4584819633558Q414.0140242222351 366.0653180960354 401.92000791685064 382.4542059162295Q389.8473591314404 398.8430937364236 374.3131721102134 398.8430937364236L374.3131721102134 398.8430937364236Q368.92855707672067 398.8430937364236 363.54394204322796 396.38582893939326L363.54394204322796 396.38582893939326Q370.16787323522294 394.52685470163976 375.55248826871565 388.8430943885086Q380.93710330220836 383.1593340753774 384.3131714581284 375.766172164312L384.3131714581284 375.766172164312Q391.23624792976193 360.3815577829042 391.23624792976193 344.99694340149654L391.23624792976193 344.99694340149654Q391.23624792976193 337.45420885061185 388.3943677731963 331.77044853748066Q385.5524876166307 326.06532070437527 380.76616314241494 326.06532070437527L380.76616314241494 326.06532070437527Q373.07385595171104 326.06532070437527 365.1678735612654 341.7704478853957Q357.2405236508456 357.4542075464419 356.7704382114137 380.85164191816625L356.7704382114137 380.85164191816625L356.7704382114137 383.75762463465435Q357.0909510110264 389.1422396681471 359.3986431682375 401.6208713330667L359.3986431682375 401.6208713330667Q337.24052495501553 396.5354015792125 337.24052495501553 369.7618990515682L337.24052495501553 369.7618990515682Q337.24052495501553 358.84309634476347 342.39009726879226 325.76617542473684Q347.53966958256905 292.6892545047101 347.53966958256905 277.45421276312163Q347.53966958256905 262.21917102153316 346.1507807842475 251.6208811143411L346.1507807842475 251.6208811143411Z " fill="#e2d3f4" transform="matrix(0.9075597779669184,0,0,0.9075597779669184,0,3.57203795890193)"/><path d="M554.3986409811133 363.5113798944856L554.3986409811133 363.5113798944856Q556.1308906881175 356.8229713035528 561.4399152531025 353.3584718895444L561.4399152531025 353.3584718895444Q560.8624986841012 351.0488056135389 560.8624986841012 346.9427322339734Q560.8624986841012 342.8526982035469 563.2844404040792 324.95278456450365L563.2844404040792 324.95278456450365Q567.550907275034 295.26394930834874 567.550907275034 278.98400993233724L567.550907275034 278.98400993233724Q567.550907275034 275.51951051832884 567.1018054991439 269.5207939403699L567.1018054991439 269.5207939403699Q575.8753294781374 269.9698957162599 579.9172454611471 272.2795619922655L579.9172454611471 272.2795619922655Q581.6494951681514 273.2098442423233 582.5637380690702 275.11852678985565Q583.4940203191279 277.02720933738806 583.6704531596562 278.63114425128083Q583.8468860001844 280.2511185143125 583.8468860001844 284.5336247344062Q583.8468860001844 288.8000916053609 580.3182291896203 312.53832833097374Q576.7895723790562 336.26052570744764 576.2121558100548 349.8939724755361L576.2121558100548 349.8939724755361Q603.5913247902042 349.8939724755361 616.7596304332637 345.49919081146993L616.7596304332637 345.49919081146993Q615.7170727392335 354.04816390251835 611.5628813122512 358.77977189850196Q607.3926505361301 363.5113798944856 601.1693830702261 363.5113798944856L601.1693830702261 363.5113798944856Q599.3088185701106 363.5113798944856 590.8240028756179 362.53297959701104Q582.3391871811252 361.5545792995364 572.8759711891579 361.5545792995364Q563.3967158480517 361.5545792995364 554.3986409811133 363.5113798944856ZM644.0104846203017 304.7432046494549Q644.0104846203017 306.47545435645907 641.1715198227116 322.93182657299883Q638.3485943742603 339.3881987895385 638.2844369777046 350.07040531606424Q638.2363189302878 360.75261184259 639.6157029562355 363.864245575542L639.6157029562355 363.864245575542Q630.6176280892971 361.5545792995364 627.4899550072064 356.87108935096956Q624.3783212742544 352.2036387515416 624.3783212742544 343.18952453546433L624.3783212742544 343.18952453546433Q624.3783212742544 338.3456410955082 626.222846425231 325.6424765774775Q628.0673715762077 312.93931205944693 628.0673715762077 305.8980377874577Q628.0673715762077 298.84072416632955 627.3776795632339 295.0393984204037L627.3776795632339 295.0393984204037Q629.9118967271844 294.7988081833198 632.1092875592174 294.7988081833198L632.1092875592174 294.7988081833198Q638.8137354992891 294.7988081833198 641.4121100597954 297.06035641190863Q644.0104846203017 299.3058652913585 644.0104846203017 304.7432046494549L644.0104846203017 304.7432046494549ZM645.7427343273059 284.6459001783786L645.7427343273059 284.6459001783786Q642.5027858012425 285.11104130340755 640.0808440812646 285.11104130340755L640.0808440812646 285.11104130340755Q628.1796470201803 285.11104130340755 628.1796470201803 276.78661910030416L628.1796470201803 276.78661910030416Q628.1796470201803 273.7872608113247 629.9118967271844 268.59051169031216L629.9118967271844 268.59051169031216Q633.1518452532478 268.1253705652832 635.5737869732259 268.1253705652832L635.5737869732259 268.1253705652832Q647.4749840343101 268.1253705652832 647.4749840343101 276.44979276838666L647.4749840343101 276.44979276838666Q647.4749840343101 279.4491510573661 645.7427343273059 284.6459001783786ZM668.0213902812762 251.62088030132676Q676.2335370404072 253.8022317842209 679.2810133768036 259.5282794268181Q682.3445290623387 265.2382877202763 682.3445290623387 272.16728654829296Q682.3445290623387 279.0962853763097 680.1471382303056 295.7932478299333Q677.9657867474115 312.474170934418 677.1477799413261 322.40252805141415L677.1477799413261 322.40252805141415Q680.6122793553344 310.05222921444 687.0280190109055 302.7703647053668Q693.4277193173376 295.50453954543264 700.8218592703832 295.50453954543264Q708.2159992234289 295.50453954543264 713.5891811849696 302.54581381742184Q718.9623631465103 309.58708808941105 718.9623631465103 320.5580029004375L718.9623631465103 320.5580029004375Q718.9623631465103 337.52763428942285 709.8840915338773 349.82981507898035Q700.8218592703832 362.13199586853784 689.161252446383 362.13199586853784L689.161252446383 362.13199586853784Q685.1193364633731 362.13199586853784 681.0774204803635 360.2874707175612L681.0774204803635 360.2874707175612Q686.049618713431 358.8920473424745 690.0915346964406 354.6255804715197Q694.1334506794504 350.3591136005649 696.6676678434009 344.80949879849607L696.6676678434009 344.80949879849607Q701.8644169644134 333.2611674184682 701.8644169644134 321.7128360384403L701.8644169644134 321.7128360384403Q701.8644169644134 316.0509457923988 699.7311835289362 311.78447892144413Q697.5979500934587 307.5019727013505 694.005135886339 307.5019727013505L694.005135886339 307.5019727013505Q688.2309701963251 307.5019727013505 682.296411014922 319.2908943184623Q676.3458124843797 331.0637765864351 675.9929468033234 348.62686389356077L675.9929468033234 348.62686389356077L675.9929468033234 350.8082153764549Q676.2335370404072 354.8501313594646 677.9657867474115 364.2171112565984L677.9657867474115 364.2171112565984Q661.3329816903434 360.3997461615336 661.3329816903434 340.3024416904574L661.3329816903434 340.3024416904574Q661.3329816903434 332.1063342804654 665.1984648328252 307.27742181340545Q669.0639479753066 282.44850934634553 669.0639479753066 271.01245341029016Q669.0639479753066 259.57639747423485 668.0213902812762 251.62088030132676L668.0213902812762 251.62088030132676ZM750.4796842045031 324.59991888344723L750.4796842045031 324.59991888344723Q754.6338756314852 309.58708808941105 760.472198718055 302.4816564208661Q766.3105218046245 295.37622475232126 771.3308380851089 295.37622475232126Q776.3511543655933 295.37622475232126 778.8853715295437 299.1294324508302Q781.4356280426333 302.8826401493393 781.4356280426333 308.83323867988145Q781.4356280426333 314.7838372104236 777.9069712320692 319.7560354434911Q774.394353770644 324.71219432741975 768.2673223995738 324.71219432741975L768.2673223995738 324.71219432741975Q766.6473481365421 324.71219432741975 764.449957304509 323.79795142650084L764.449957304509 323.79795142650084Q768.0427715116288 319.2908943184623 768.0427715116288 312.93931205944693L768.0427715116288 312.93931205944693Q768.0427715116288 309.23422240835464 765.0273738735103 309.23422240835464L765.0273738735103 309.23422240835464Q762.8460223906162 309.23422240835464 760.2957658775266 312.29773809388985Q757.7615487135762 315.36125377942494 755.4518824375706 320.73443574096575Q753.142216161565 326.10761770250645 751.5863992950891 334.4801579530267Q750.014543079474 342.8526982035469 750.014543079474 352.3159141955141L750.014543079474 352.3159141955141Q750.014543079474 353.4707473335169 750.5919596484756 362.13199586853784L750.5919596484756 362.13199586853784Q746.9029093465223 362.35654675648277 745.8603516524919 362.35654675648277L745.8603516524919 362.35654675648277Q739.2842185055316 362.35654675648277 736.3971356605247 360.04688048047717Q733.5100528155177 357.7372142044717 733.5100528155177 352.4281896394866L733.5100528155177 352.4281896394866Q733.5100528155177 350.118523363481 735.9319945354956 334.6405514444159Q738.3539362554737 319.17861887448976 738.3539362554737 309.98807181788425Q738.3539362554737 300.8135641104177 736.3971356605247 293.06655847631566L736.3971356605247 293.06655847631566Q744.8177939584615 295.72909043337756 748.1700179284975 300.63713126988944Q751.5222418985333 305.5451721064013 751.5222418985333 312.0731872059448Q751.5222418985333 318.6012023054883 750.4796842045031 324.59991888344723ZM800.3780993757067 340.3024416904574L800.3780993757067 340.3024416904574Q800.3780993757067 345.7397810485538 802.3990573672116 349.1401230660065Q804.4200153587166 352.54046508345914 808.1090656606699 352.54046508345914L808.1090656606699 352.54046508345914Q813.5303656696273 352.54046508345914 818.4384065061391 346.1888828244438Q823.346447342651 339.83730056542845 826.2976875842136 329.9089434484323Q829.2489278257764 319.98058633143614 829.2489278257764 311.0306295119145Q829.2489278257764 302.0806726923929 828.5431964636635 296.53105789032395L828.5431964636635 296.53105789032395Q832.0076958776718 296.306507002379 833.4031192527585 296.306507002379L833.4031192527585 296.306507002379Q839.2895603867449 296.306507002379 842.2889186757244 298.5038978344121Q845.2882769647039 300.7012886664452 845.2882769647039 306.3471395633477L845.2882769647039 306.3471395633477Q845.2882769647039 308.5445303953808 842.5295089128084 324.19893515497404Q839.754701511774 339.83730056542845 839.754701511774 349.252398509979Q839.754701511774 358.66749645452944 843.3314763697548 365.94936096360254L843.3314763697548 365.94936096360254Q834.670227834734 364.44166214454333 830.6283118517241 359.53362130803157Q826.5863958687145 354.6255804715197 826.5863958687145 345.3869153674974L826.5863958687145 345.3869153674974Q826.5863958687145 343.7669411044657 827.0515369937433 339.1476085524546L827.0515369937433 339.1476085524546Q823.9238639116523 350.118523363481 815.9683467387443 356.8229713035528Q807.9967902166974 363.5113798944856 800.3139419791511 363.5113798944856Q792.6310937416048 363.5113798944856 787.9636431421767 357.8013716010273Q783.2801531936099 352.09136330756917 783.2801531936099 341.5695502724326Q783.2801531936099 331.0637765864351 787.033360892119 321.1995768659946Q790.786568590628 311.3193377964152 798.2929839876462 304.45449636495425Q805.7993993846643 297.57361558435434 815.0380644886865 297.57361558435434L815.0380644886865 297.57361558435434Q820.3470890536715 297.57361558435434 825.8967038557406 300.12387209744384L825.8967038557406 300.12387209744384Q814.2360970317401 304.278063524426 807.3070982037235 316.451929520872Q800.3780993757067 328.641834866457 800.3780993757067 340.3024416904574ZM877.2867784968645 324.59991888344723L877.2867784968645 324.59991888344723Q881.4409699238466 309.58708808941105 887.2792930104164 302.4816564208661Q893.1015767478472 295.37622475232126 898.1218930283313 295.37622475232126Q903.1582486579547 295.37622475232126 905.6924658219051 299.1294324508302Q908.2266829858557 302.8826401493393 908.2266829858557 308.83323867988145Q908.2266829858557 314.7838372104236 904.7140655244306 319.7560354434911Q901.1854087138667 324.71219432741975 895.0744166919352 324.71219432741975L895.0744166919352 324.71219432741975Q893.4544424289035 324.71219432741975 891.2570515968704 323.79795142650084L891.2570515968704 323.79795142650084Q894.8338264548512 319.2908943184623 894.8338264548512 312.93931205944693L894.8338264548512 312.93931205944693Q894.8338264548512 309.23422240835464 891.8344681658717 309.23422240835464L891.8344681658717 309.23422240835464Q889.6370773338386 309.23422240835464 887.1028601698882 312.29773809388985Q884.5526036567986 315.36125377942494 882.242937380793 320.73443574096575Q879.9332711047874 326.10761770250645 878.3774542383115 334.4801579530267Q876.8216373718354 342.8526982035469 876.8216373718354 352.3159141955141L876.8216373718354 352.3159141955141Q876.8216373718354 353.4707473335169 877.399053940837 362.13199586853784L877.399053940837 362.13199586853784Q873.7100036388837 362.35654675648277 872.6674459448533 362.35654675648277L872.6674459448533 362.35654675648277Q866.075273448754 362.35654675648277 863.1881906037471 360.04688048047717Q860.3011077587402 357.7372142044717 860.3011077587402 352.4281896394866L860.3011077587402 352.4281896394866Q860.3011077587402 350.118523363481 862.7390888278572 334.6405514444159Q865.1610305478354 319.17861887448976 865.1610305478354 309.98807181788425Q865.1610305478354 300.8135641104177 863.1881906037471 293.06655847631566L863.1881906037471 293.06655847631566Q871.6248882508231 295.72909043337756 874.9771122208589 300.63713126988944Q878.3293361908947 305.5451721064013 878.3293361908947 312.0731872059448Q878.3293361908947 318.6012023054883 877.2867784968645 324.59991888344723ZM964.1238147350185 303.46005671834075L964.1238147350185 303.46005671834075Q964.1238147350185 307.5019727013505 960.65931532101 314.3828534819504Q957.1948159070017 321.24769491341146 952.2386570230732 329.57211711651485Q947.2664587900055 337.88049997047926 942.294260556938 347.2955979150298Q937.3381016730094 356.71069585958026 933.8736022590009 368.5477355241088Q930.4091028449926 380.3847751886374 930.4091028449926 391.6925163315814L930.4091028449926 391.6925163315814Q930.4091028449926 396.8892654525939 931.211070301939 401.6208734485775L931.211070301939 401.6208734485775Q921.8601297539443 399.88862374157327 918.5079057839083 396.4882817241207Q915.1556818138725 393.08793970666807 915.1556818138725 388.46860715465687L915.1556818138725 388.46860715465687Q915.1556818138725 382.11702489564163 924.3943469178947 363.39910445051305L924.3943469178947 363.39910445051305Q922.6620972108907 356.24555473455143 920.12788004694 340.94401565601447Q917.5936628829894 325.6424765774775 914.9952883224831 314.31869608539466Q912.3969137619769 303.0109549424508 909.0446897919411 297.4613401403818L909.0446897919411 297.4613401403818Q915.3962720509563 294.46198185140236 919.1975977968822 294.46198185140236Q923.014962891947 294.46198185140236 924.9717634868961 296.1942315584065Q926.9446034309843 297.92648126541064 928.2758694095152 303.05907298986756Q929.5910960389073 308.2077040634633 930.1685126079088 311.54388868436024L930.1685126079088 311.54388868436024Q931.7884868709403 322.64311828849804 931.7884868709403 323.91022687047337Q931.7884868709403 325.1773354524487 932.7187691209982 334.2395677159427Q933.6330120219171 343.30179997943685 934.098153146946 346.1888828244438L934.098153146946 346.1888828244438Q954.6605987430511 306.3471395633477 954.6605987430511 292.95428303234314L954.6605987430511 292.95428303234314Q964.1238147350185 297.81420582143824 964.1238147350185 303.46005671834075Z " fill="#013dc4" transform="matrix(0.9075597779669184,0,0,0.9075597779669184,0,3.57203795890193)"/></g></svg>